<?xml version="1.0" standalone="no"?>
<!DOCTYPE svg PUBLIC "-//W3C//DTD SVG 20010904//EN"
 "http://www.w3.org/TR/2001/REC-SVG-20010904/DTD/svg10.dtd">
<svg version="1.0" xmlns="http://www.w3.org/2000/svg"
 width="128.000000pt" height="128.000000pt" viewBox="0 0 128.000000 128.000000"
 preserveAspectRatio="xMidYMid meet">
<metadata>
Created by potrace 1.14, written by Peter Selinger 2001-2017
</metadata>
<g transform="translate(0.000000,128.000000) scale(0.100000,-0.100000)"
fill="#000000" stroke="none">
<path d="M95 1266 c-45 -20 -83 -70 -90 -119 -3 -23 -5 -268 -3 -544 3 -489 4
-502 24 -529 11 -15 33 -37 48 -48 27 -21 38 -21 566 -21 528 0 539 0 566 21
15 11 37 33 48 48 21 27 21 38 21 566 0 528 0 539 -21 566 -11 15 -33 37 -48
48 -27 21 -40 21 -554 23 -424 2 -533 0 -557 -11z m248 -66 c189 -101 398
-104 579 -10 132 68 120 121 112 -467 -6 -482 -7 -510 -26 -551 -55 -117 -231
-156 -359 -79 -83 50 -99 90 -99 248 l0 128 27 -15 c36 -18 96 -18 133 1 l30
16 0 -115 c0 -107 1 -116 22 -130 31 -22 70 -20 103 6 l27 21 -4 361 c-3 259
-7 367 -16 383 -29 52 -91 54 -117 3 -12 -23 -15 -72 -15 -254 l0 -225 -32
-17 c-39 -20 -120 -14 -148 11 -19 17 -20 31 -20 247 l0 229 -25 24 c-37 38
-76 32 -100 -16 -12 -22 -15 -75 -15 -253 0 -221 0 -225 -22 -240 -29 -20 -77
-20 -106 0 l-22 15 0 355 c0 405 -8 378 93 324z"/>
</g>
</svg>
